<svg width="43" height="14" viewBox="0 0 43 14" fill="none" xmlns="http://www.w3.org/2000/svg">
<g clip-path="url(#clip0_192_52676)">
<path d="M38.7174 12.2717C36.4731 12.2717 34.5993 11.3467 34.3504 9.13702C34.3427 9.06865 34.3901 9.00675 34.4558 8.99802L36.7584 8.69171C36.8305 8.68211 36.8945 8.73954 36.9009 8.81486C36.9932 9.91553 37.7426 10.4128 38.775 10.4128C39.8698 10.4128 40.4266 9.99306 40.4266 9.25349C40.4266 8.59388 39.6969 8.35402 38.1796 7.97425C36.3357 7.51451 34.6456 6.91487 34.6456 4.85606C34.6456 2.65735 36.5086 1.79785 38.5829 1.79785C40.6577 1.79785 42.436 2.51109 42.7357 4.69478C42.7449 4.76219 42.7002 4.82505 42.6357 4.83649L40.4094 5.23162C40.3368 5.24452 40.2698 5.18816 40.2621 5.11188C40.1592 4.09354 39.5394 3.63678 38.6213 3.63678C37.8339 3.63678 37.1808 3.9366 37.1808 4.6362C37.1808 5.3158 37.8723 5.55566 39.1591 5.85548C40.8684 6.25524 43.0003 6.73497 43.0003 9.11358C43.0003 11.5122 40.9644 12.2717 38.7174 12.2717Z" fill="#0080BC"/>
<path d="M32.8458 2.75001C33.6141 3.54954 33.7101 4.62891 33.7101 5.92816V12.0566C33.7101 12.1274 33.6549 12.1849 33.5868 12.1849H31.1254C31.0573 12.1849 31.0021 12.1274 31.0021 12.0566V6.168C31.0021 5.24854 30.9253 4.76882 30.5027 4.34907C30.157 4.00928 29.8305 3.9493 29.2543 3.9493C28.4284 3.9493 27.4681 4.52896 27.4681 6.58776V12.0566C27.4681 12.1274 27.4129 12.1849 27.3448 12.1849H24.9026C24.8345 12.1849 24.7793 12.1274 24.7793 12.0566V2.1787C24.7793 2.10785 24.8345 2.05041 24.9026 2.05041H27.3256C27.3937 2.05041 27.4489 2.10785 27.4489 2.1787V3.26643C27.4489 3.32788 27.5366 3.34731 27.5641 3.29292C28.1045 2.22456 29.1316 1.81055 30.2915 1.81055C31.5207 1.81055 32.2312 2.11039 32.8458 2.75001Z" fill="#0080BC"/>
<path d="M22.6525 3.08347C23.585 4.07032 24.0547 5.5702 24.0943 7.46964C24.0957 7.53946 24.0425 7.59735 23.9756 7.59955L17.1949 7.82262C17.1264 7.82488 17.0725 7.88538 17.0772 7.95666C17.1824 9.5473 17.9721 10.3368 19.3741 10.2907C20.5572 10.2518 21.1543 9.69431 21.3402 8.7197C21.3526 8.65517 21.4079 8.60834 21.471 8.61205L23.8325 8.75083C23.9086 8.75531 23.9625 8.8303 23.9439 8.90717C23.419 11.0665 21.856 12.1889 19.4342 12.2686C17.9369 12.3178 16.7315 11.8575 15.9003 11.0649C14.9504 10.1563 14.4496 8.85285 14.3986 7.17467C14.3502 5.57641 14.7311 4.20399 15.6433 3.23406C16.4619 2.3472 17.5997 1.8498 19.0971 1.80055C20.6135 1.75065 21.819 2.21095 22.6525 3.08347ZM19.1558 3.73844C18.3688 3.76434 17.8194 4.02239 17.4698 4.53385C17.235 4.86951 17.0982 5.28494 17.0445 5.76548C17.0361 5.84144 17.0954 5.90606 17.1688 5.90363L21.1764 5.77179C21.2491 5.76941 21.3041 5.7022 21.2928 5.62739C21.2087 5.07202 21.039 4.60734 20.7093 4.2673C20.3323 3.87972 19.847 3.71572 19.1558 3.73844Z" fill="#0080BC"/>
<path fill-rule="evenodd" clip-rule="evenodd" d="M6.08785 0.230301C6.03855 0.15239 6.12919 0.0611549 6.20273 0.114653L9.28191 2.35419C11.2226 3.76569 12.1162 6.28588 11.5009 8.66088C11.4521 8.84903 11.3999 9.01372 11.3507 9.15171C11.3203 9.23726 11.1992 9.21879 11.1931 9.12781C11.1412 8.35449 10.6053 7.47039 10.2164 6.82871C10.1469 6.71415 10.0822 6.60733 10.0257 6.51024C9.64767 5.8604 6.91109 1.53138 6.08785 0.230301ZM2.01077 6.52911L5.69642 0.227549C5.73922 0.154402 5.66221 0.06908 5.58913 0.108681C4.9448 0.457725 3.20627 1.46763 1.84135 2.88409C0.345549 4.43636 1.55438 6.13948 1.87884 6.53979C1.9147 6.58402 1.98186 6.57853 2.01077 6.52911ZM5.60532 13.8335C5.65463 13.9114 5.56398 14.0026 5.49044 13.9492L2.41127 11.7096C0.470583 10.2981 -0.423001 7.77791 0.192286 5.40291C0.241023 5.21476 0.29332 5.05007 0.342439 4.91208C0.372896 4.82653 0.493972 4.845 0.500078 4.93598C0.551989 5.70929 1.08787 6.59341 1.47682 7.23508C1.54625 7.34963 1.61099 7.45646 1.66748 7.55355C2.04551 8.20339 4.78209 12.5324 5.60532 13.8335ZM5.99704 13.8356L9.68271 7.53401C9.71162 7.48461 9.77877 7.4791 9.81463 7.52333C10.1391 7.92364 11.3479 9.62676 9.85213 11.179C8.48721 12.5955 6.74868 13.6054 6.10437 13.9544C6.03127 13.994 5.95425 13.9087 5.99704 13.8356Z" fill="#0080BC"/>
</g>
<defs>
<clipPath id="clip0_192_52676">
<rect width="43" height="14" fill="white"/>
</clipPath>
</defs>
</svg>
