<svg width="480" height="480" viewBox="0 0 480 480" fill="none" xmlns="http://www.w3.org/2000/svg">
<rect width="480" height="480" fill="#0080BC"/>
<path d="M236.324 83.6028L147.982 228.446C147.289 229.581 145.679 229.708 144.82 228.691C137.042 219.49 108.068 180.344 143.921 144.664C176.637 112.106 218.308 88.8935 233.752 80.8706C235.504 79.9604 237.35 81.9215 236.324 83.6028Z" fill="#F6F6F6"/>
<path d="M231.441 398.975C233.204 400.205 235.377 398.108 234.195 396.317C214.463 366.411 148.869 266.908 139.808 251.971C130.871 237.238 113.293 212.753 111.826 191.805C111.68 189.714 108.778 189.29 108.048 191.256C106.87 194.428 105.617 198.213 104.449 202.538C89.7008 257.128 111.119 315.055 157.636 347.499L231.441 398.975V398.975Z" fill="#F6F6F6"/>
<path d="M243.58 396.399L331.922 251.556C332.615 250.42 334.225 250.294 335.084 251.31C342.862 260.512 371.836 299.658 335.983 335.338C303.267 367.895 261.596 391.108 246.152 399.131C244.4 400.041 242.554 398.08 243.58 396.399Z" fill="#F6F6F6"/>
<path d="M248.561 81.0079C246.798 79.7782 244.626 81.8753 245.807 83.6661C265.54 113.572 331.133 213.075 340.194 228.012C349.132 242.745 366.71 267.23 368.176 288.177C368.322 290.269 371.225 290.693 371.955 288.727C373.132 285.555 374.385 281.769 375.554 277.445C390.302 222.855 368.883 164.928 322.367 132.484L248.561 81.0079Z" fill="#F6F6F6"/>
</svg>
