<svg width="20" height="20" viewBox="0 0 20 20" fill="none" xmlns="http://www.w3.org/2000/svg">
<path d="M19.1446 5.13216H9.85986V0.833379C9.85986 0.519643 10.1177 0.265106 10.4354 0.265106H19.144C19.4618 0.265106 19.7196 0.519643 19.7196 0.833379V4.56388C19.7196 4.87761 19.4618 5.13216 19.144 5.13216H19.1446Z" fill="#171717"/>
<path d="M0.575615 14.8679H9.86039V19.1667C9.86039 19.4804 9.60251 19.7349 9.28476 19.7349H0.575615C0.257826 19.7349 0 19.4804 0 19.1667V15.4362C0 15.1224 0.257826 14.8679 0.575615 14.8679Z" fill="#171717"/>
<path d="M0.575615 5.13211H9.86039V9.99917H0.575615C0.257826 9.99917 0 9.74461 0 9.43087V5.70039C0 5.38665 0.257826 5.13211 0.575615 5.13211Z" fill="#171717"/>
<path d="M19.1446 14.868H9.85986V10.0009H19.1446C19.4624 10.0009 19.7202 10.2555 19.7202 10.5692V14.2997C19.7202 14.6134 19.4624 14.868 19.1446 14.868Z" fill="#171717"/>
</svg>
